<?xml version="1.0" encoding="UTF-8"?><svg id="Layer_1" xmlns="http://www.w3.org/2000/svg" viewBox="0 0 90.76 39.16"><defs><style>.cls-1{fill:#9f1239;fill-rule:evenodd;stroke-width:0px;}</style></defs><path class="cls-1" d="M85.85,4.79c.29.29.56.59.84.9.1.12.21.25.31.37.22.26.42.53.62.8.1.15.21.3.3.44.2.29.39.59.56.9.1.16.2.33.29.49.02.05.05.1.08.15-.32,1.21-.87,2.4-1.62,3.54-2.31-2.03-3.67-6.28-3.56-9.41.27.19.55.38.8.58.1.08.2.17.3.26.26.21.51.43.75.67.12.1.23.21.34.31ZM82.3,2.13c-.39,3.61,1.16,8.9,4.07,11.4-.61.74-1.32,1.47-2.1,2.14l-.08-.08c-3.95-3.52-4.59-10.81-3.9-14.42h0c.24.09.46.2.7.31.16.08.33.15.48.22.28.14.56.28.83.44ZM89.69,10.73c.05.14.1.27.15.41.05.15.1.3.15.45.12.4.24.81.33,1.22,0,.01,0,.02,0,.03-.23.07-.42.23-.49.48-1.67,5.51-5.8,9.64-11.36,11.32-5.94,1.81-12.56.53-17.26-3.35-.01-.01-.03-.03-.05-.04.42-.87.93-1.72,1.49-2.52-.02.23.07.47.26.62,4.11,3.25,10.51,3.57,16.7.85,4.83-2.13,8.48-5.64,10.08-9.48ZM78.95.69h0c-.83,3.96-.18,11.91,4.2,15.86-.88.65-1.85,1.26-2.89,1.78-.03-.09-.08-.18-.15-.25-4.66-5.03-6.24-13.28-3.48-17.89.08.01.17.03.25.04.25.03.5.08.75.13.26.05.52.12.78.19.17.05.35.08.53.14ZM75.11.04c-2.64,5.2-.98,13.56,3.9,18.9-.98.43-1.95.77-2.93,1.04-.01-.19-.09-.38-.24-.5-5.42-4.57-5.78-14.52-3.47-19.38,0,0,.01,0,.03,0,.51-.06,1.03-.08,1.53-.1.21,0,.41,0,.61.01.19,0,.39.02.58.03ZM90.68,15.17c.04.38.06.76.07,1.15,0,.11,0,.21-.01.31,0,.41-.01.82-.05,1.22,0,.12-.02.24-.03.36-.05.47-.11.94-.2,1.4-.21.03-.39.14-.5.32-3.41,5.47-8.88,8.95-15.02,9.55-5.54.54-10.82-1.39-14.47-5.29-.08-.09-.18-.15-.29-.18.09-.47.23-.94.41-1.41,5.05,4.01,12.01,5.3,18.29,3.4,5.52-1.68,9.74-5.58,11.8-10.82ZM70.71.37c-2.1,5.5-1.49,15.1,3.94,19.94-1.2.24-2.38.35-3.52.32-.01-.03-.03-.05-.06-.08-3.72-4.76-5.81-13.39-2.91-19.4.24-.09.48-.19.72-.27.11-.04.22-.08.32-.11.44-.14.89-.26,1.34-.37.05-.01.11-.03.15-.04ZM89.34,23.19c-.14.33-.29.67-.46.99-.02.05-.04.09-.07.13-.04.09-.1.17-.14.26-.01.01-.02.03-.03.04-.07.13-.15.25-.22.36-.59.94-1.28,1.83-2.07,2.67-.52.55-1.07,1.05-1.64,1.51-2.03,2.51-9.25,10.86-18.22,9.94-3.79-.39-6.94-1.95-10.12-4.65-5.6-4.74-8.3-11.49-15.11-11.88-2.09-.06-4.14.73-5.86,1.96.64.76,1.21,1.6,1.67,2.52,1.75,3.43-.99,7.62-3.95,7.06-2.64-.49-3.57-2.34-3.15-4.45.35-1.76,1.6-3.68,3.32-5.24-1.46-1.25-3.95-2.98-7.39-3.71-6.19-1.32-11.18,1.52-13.42,2.81-7.62,4.37-10.37,11.86-11.12,14.2-.12.37-.52.57-.89.45-.37-.12-.57-.52-.46-.89.78-2.43,3.67-10.36,11.77-14.99,2.25-1.29,7.65-4.4,14.41-2.96,3.89.83,6.65,2.82,8.19,4.18l.04-.03h0c1.93-1.4,4.33-2.38,6.87-2.31,7.55.44,10.52,7.61,15.96,12.22,3.02,2.55,5.91,3.97,9.36,4.32,5.7.59,10.72-3.01,13.94-6.11-5.88,2.4-12.88,1.3-17.77-3.35-.28-.26-.55-.53-.8-.81,3.67,2.69,8.28,3.94,13.08,3.47,5.58-.55,10.62-3.3,14.25-7.7ZM66.32,2.02c-.33.91-.55,1.85-.69,2.82-1.67.48-3.18,1-4.54,1.68.29-.39.62-.77.95-1.13.12-.12.21-.25.32-.37.24-.26.52-.49.78-.73.13-.12.26-.26.39-.37.27-.23.55-.43.83-.65.16-.11.3-.23.45-.34.24-.16.49-.31.74-.46.23-.13.45-.28.68-.42.02,0,.05-.01.08-.03ZM65.47,6.35c-.07,1.02-.06,2.04.02,3.08-2.84.87-5.9,3.36-7.79,6.35,0-.1,0-.21.01-.31.02-.32.05-.64.09-.95.03-.27.07-.53.11-.79.05-.29.11-.57.18-.85.05-.26.11-.53.19-.79.09-.31.18-.6.28-.9.08-.22.15-.44.24-.65.16-.42.35-.82.54-1.22.04-.07.07-.14.1-.22,1.66-1.24,3.64-2.04,6.02-2.75ZM65.66,10.85c.12.84.28,1.67.49,2.48-.13,0-.24.05-.35.13-2.64,1.88-5.69,5.6-6.77,9.38-.55-1.25-.93-2.54-1.16-3.87-.02-.1-.04-.21-.05-.3,1.29-3.46,4.69-6.74,7.84-7.81ZM66.53,14.67c.68,2.17,1.64,4.17,2.78,5.83-2.1-.28-4-1.04-5.53-2.25-.22-.17-.5-.19-.74-.08,1.09-1.43,2.33-2.67,3.49-3.5ZM58.81,22.51c.06.16.12.32.18.47h0c-.06-.15-.11-.31-.17-.47ZM34.14,25.54c-1.51,1.4-2.51,3.03-2.78,4.37-.27,1.39.2,2.46,2.03,2.79,1.66.31,3.72-2.53,2.44-5.04-.4-.77-.87-1.48-1.4-2.14l-.12-.13-.17.14Z" marker-end="none" marker-start="none"/></svg>