<?xml version="1.0" encoding="UTF-8"?><svg id="Layer_1" xmlns="http://www.w3.org/2000/svg" viewBox="0 0 709.48 375.85"><defs><style>.cls-1{fill-rule:evenodd;}.cls-1,.cls-2{fill:#fff;stroke-width:0px;}</style></defs><path class="cls-1" d="M272.89,208.33c-13.59-.01-24.1,10.83-24.09,24.84.01,13.65,11.07,24.86,24.41,24.75,13.33-.12,24.14-11.35,24.11-25.05-.04-13.91-10.6-24.53-24.43-24.54Z"/><path class="cls-1" d="M438.54,208.86c-13.82,0-24.29,10.41-24.4,24.27-.11,13.65,10.46,24.72,23.85,24.97,13.65.26,25.16-11.15,25.09-24.85-.07-13.44-11.1-24.39-24.55-24.39Z"/><path class="cls-2" d="M702.95,272.23c-1.56-1.15-4.55-.63-6.86-.43-11.09.97-22.21,1.73-33.21,3.3-5.6.8-7.96-.64-8.94-6.24-8.46-48.19-24.77-93.84-45.99-137.73-20.35-42.09-44.88-81.56-76.79-117.07-16.74,16.11-26.69,34.66-36.99,56.14-9.66,20.13-12.61,42.92-18.38,63.08-69.5-33.56-163.5-31.56-229.82-2.34C227.93,87.41,211.57,42.43,185.29,0c-9.33,9.35-18.11,16.78-25.23,25.55-23.16,28.49-38.6,61.41-52.14,95.19-16.67,41.56-32.52,83.45-40.42,127.8-1.98,11.11-3.49,22.3-5.2,33.28-16.89-1.78-32.87-3.55-48.87-5.09-2.82-.27-6.39-.54-8.43.88-2.47,1.72-4.72,1.1-4.99,7.98-.08,1.99,3.67,5.02,6.25,5.81,4.11,1.25,8.7.9,13.05,1.45,13.82,1.74,27.63,3.58,41.12,5.34,1.36,16.22,1.42,16.83-12.68,18.25-10.36,1.04-20.91.34-31.37.14-5.76-.11-11.46.95-12.26,7.17-.84,6.51,4.92,7.67,10.17,8.12,1.17.1,2.34.27,3.51.27,13.64.02,27.29.01,41.72.01,2.28,6.8.46,13-8.25,16.65-8.33,3.5-16.35,7.79-24.8,10.92-5.22,1.94-9.66,3.87-7.93,10.24,1.7,6.26,6.61,6.87,11.94,4.82,10-3.85,19.91-7.9,30.12-11.98.58,4.07,1.19,8.31,1.81,12.62,48.07,0,168.11,0,289.87.01.04-11.32,1.65-22.38-.66-32.54-1.31-5.75-9.31-9.96-14.24-14.91-1.03-1.03-1.9-2.23-2.75-3.42-5.51-7.74-3.27-14.92,6.11-16.06,9.2-1.12,18.77-1.07,27.97.09,9.41,1.18,11.88,8.39,5.97,16.01-3.91,5.05-8.96,9.21-13.38,13.87-1.73,1.83-4.42,3.89-4.51,5.94-.46,10.33-.22,20.69-.21,31.02,125.96,0,252.88.01,303.03.01.84-4.16,1.56-7.72,2.23-11.03,9.37,3.56,18.05,6.91,26.79,9.77,7.67,2.51,8.94-1.85,10.32-4.57,2.7-5.29-1.76-8.25-6.62-10.08-6.28-2.36-12.7-4.54-18.6-7.66-13.43-7.11-14.39-9.72-11.25-25.44,5.43.37,10.92,1,16.42,1.06,5.55.06,11.33.41,16.59-.97,3.41-.9,8.8,1.16,9.06-7.17-.26-4.67-6.65-6.02-10.47-6.89-4.68-1.07-9.88.36-14.86.36q-19.38.02-21.09-19.04c-.04-.5.39-1.05.79-2.04,1.99-.39,4.22-.99,6.49-1.23,12.23-1.29,28.73-2.98,40.87-4.83,2.87-.44,3.16-3.41,3.09-5.55.91-8.44-3.65-5.91-6.42-7.93ZM119.7,169.9c19.65-37.68,39.29-75.36,58.94-113.04.84.11,1.67.21,2.51.32,9.87,24.23,19.74,48.46,28.98,71.14-29.95,14.33-59.09,28.28-88.23,42.22-.73-.22-1.47-.43-2.2-.64ZM272.59,325.15c-36.67,9.83-69.32-15.84-69.32-54.48,0-33.17,24.46-63.3,56.9-70.08,35.42-7.41,66.35,19.31,65.6,56.64-.63,31.01-23.24,59.9-53.17,67.92ZM513.47,283.01c-6.64,30.16-33.33,47.8-63.72,42.13-32.93-6.14-58.02-36.07-58.27-69.52-.29-38.16,30.97-62.97,68.22-54.14,36.6,8.67,61.5,46.43,53.77,81.53ZM569.53,171.18c-16.41-7.69-32.61-15.82-49.18-23.14-6.37-2.81-8.77-6.95-6.86-13.01,7.35-23.28,15.09-46.44,22.68-69.65,1.19.14,2.39.28,3.58.42,21.31,38.38,43.68,76.22,58.76,118.52-9.67-4.37-19.38-8.64-28.99-13.14Z"/></svg>