<?xml version="1.0" encoding="UTF-8"?><svg id="Layer_1" xmlns="http://www.w3.org/2000/svg" viewBox="0 0 90.73 39.65"><defs><style>.cls-1{fill:#9f1239;fill-rule:evenodd;stroke-width:0px;}</style></defs><path class="cls-1" d="M85.86,4.79c2.44,2.22,3.88,4.75,1.37,7.6-2.31-2.03-3.67-6.28-3.56-9.41.8.53,1.49,1.16,2.19,1.81ZM82.31,2.13c-2.03,4.94,6.24,10.73,1.97,13.54-3.53-2.39-6.85-16.52-1.97-13.54ZM89.7,10.73c1.13,13.19-19.42,19.31-28.53,10.53.42-.87.93-1.72,1.49-2.52,6.36,7.71,24,.89,27.04-8.01ZM78.95.69c-.81,3.95-.19,11.91,4.21,15.86-.88.65-1.85,1.26-2.89,1.78-4.33-4.08-8.42-18.87-1.32-17.65ZM75.12.04c-2.64,5.2-.98,13.56,3.9,18.9-.98.43-1.95.77-2.93,1.04-5.26-4.85-6.3-14.68-3.71-19.88.91-.1,1.83-.13,2.75-.06ZM90.69,15.17c1.15,14.04-26.28,20.15-30.09,7.43,9.35,7.83,25.88,4.42,30.09-7.43ZM70.72.37c-2.1,5.5-1.49,15.1,3.94,19.94-7.69,2.7-11.49-18.49-3.94-19.94ZM89.35,23.19c-29.34,41.02-34.32-8.8-53.93,1.32,9.35,12.96-14.18,11.6-2.1-.11C22.06,12.86,2.19,28.63,1.38,37.7c-.25.87-1.65.44-1.34-.43.88-9.88,22.46-26.33,34.37-13.78,1.94-1.4,4.36-2.42,6.92-2.34,14.46,3.89,21.88,28.22,39.26,10.44-6.19,2.57-13.8,1.09-18.57-4.16,8.23,6.23,20.97,3.89,27.33-4.23ZM66.33,2.01c-.1,3.3-2.83,3.39-5.23,4.49,1.4-1.85,3.19-3.4,5.23-4.49ZM65.48,6.35c.91,4.8-5.79,4.68-7.76,9.43-.07-5.14,2.47-8.45,7.76-9.43ZM65.67,10.84c.12.84.28,1.67.49,2.48-2.95,1.66-5.94,5.67-7.13,9.51-3.32-5.03,2.38-10.39,6.63-11.99ZM66.54,14.67c.68,2.17,1.64,4.17,2.78,5.83-2.49-.02-4.26-1.88-6.26-2.33,1.09-1.43,2.33-2.67,3.49-3.5ZM58.82,22.51c.05.17.13.32.17.47-.06-.16-.11-.32-.17-.47ZM34.15,25.54c-2.21,2.12-4.83,6.15-.75,7.16,3.25.51,3.58-6.1.75-7.16Z" marker-end="none" marker-start="none"/></svg>